<svg width="58" height="86" viewBox="0 0 58 86" fill="none" xmlns="http://www.w3.org/2000/svg">
<path d="M1.92188 31.2031C1.92188 29.0156 2.46094 26.8984 3.53906 24.8516C4.61719 22.8047 6.14062 21.2422 8.10938 20.1641C10.0938 19.0859 12.3047 18.5469 14.7422 18.5469C18.5078 18.5469 21.5938 19.7734 24 22.2266C26.4062 24.6641 27.6094 27.75 27.6094 31.4844C27.6094 35.25 26.3906 38.375 23.9531 40.8594C21.5312 43.3281 18.4766 44.5625 14.7891 44.5625C12.5078 44.5625 10.3281 44.0469 8.25 43.0156C6.1875 41.9844 4.61719 40.4766 3.53906 38.4922C2.46094 36.4922 1.92188 34.0625 1.92188 31.2031ZM8.67188 31.5547C8.67188 34.0234 9.25781 35.9141 10.4297 37.2266C11.6016 38.5391 13.0469 39.1953 14.7656 39.1953C16.4844 39.1953 17.9219 38.5391 19.0781 37.2266C20.25 35.9141 20.8359 34.0078 20.8359 31.5078C20.8359 29.0703 20.25 27.1953 19.0781 25.8828C17.9219 24.5703 16.4844 23.9141 14.7656 23.9141C13.0469 23.9141 11.6016 24.5703 10.4297 25.8828C9.25781 27.1953 8.67188 29.0859 8.67188 31.5547Z" fill="white"/>
<path d="M29.9219 62.2031C29.9219 60.0156 30.4609 57.8984 31.5391 55.8516C32.6172 53.8047 34.1406 52.2422 36.1094 51.1641C38.0938 50.0859 40.3047 49.5469 42.7422 49.5469C46.5078 49.5469 49.5938 50.7734 52 53.2266C54.4062 55.6641 55.6094 58.75 55.6094 62.4844C55.6094 66.25 54.3906 69.375 51.9531 71.8594C49.5312 74.3281 46.4766 75.5625 42.7891 75.5625C40.5078 75.5625 38.3281 75.0469 36.25 74.0156C34.1875 72.9844 32.6172 71.4766 31.5391 69.4922C30.4609 67.4922 29.9219 65.0625 29.9219 62.2031ZM36.6719 62.5547C36.6719 65.0234 37.2578 66.9141 38.4297 68.2266C39.6016 69.5391 41.0469 70.1953 42.7656 70.1953C44.4844 70.1953 45.9219 69.5391 47.0781 68.2266C48.25 66.9141 48.8359 65.0078 48.8359 62.5078C48.8359 60.0703 48.25 58.1953 47.0781 56.8828C45.9219 55.5703 44.4844 54.9141 42.7656 54.9141C41.0469 54.9141 39.6016 55.5703 38.4297 56.8828C37.2578 58.1953 36.6719 60.0859 36.6719 62.5547Z" fill="white"/>
<line x1="45.9095" y1="26.6136" x2="14.2564" y2="64.0711" stroke="white" stroke-width="5"/>
</svg>
