<svg width="92" height="145" viewBox="0 0 92 145" fill="none" xmlns="http://www.w3.org/2000/svg">
<path d="M49.3499 143.43C47.5926 145.187 44.7433 145.187 42.986 143.43L14.3482 114.792C12.5908 113.035 12.5908 110.186 14.3482 108.428C16.1055 106.671 18.9548 106.671 20.7121 108.428L46.168 133.884L71.6238 108.428C73.3812 106.671 76.2304 106.671 77.9878 108.428C79.7451 110.186 79.7451 113.035 77.9878 114.792L49.3499 143.43ZM50.668 51.248L50.668 140.248L41.668 140.248L41.668 51.248L50.668 51.248Z" fill="#F35959"/>
<path d="M89.8321 27.7442C91.9 26.3656 92.4588 23.5717 91.0802 21.5038C89.7016 19.436 86.9077 18.8772 84.8398 20.2558L89.8321 27.7442ZM47.8321 55.7442L89.8321 27.7442L84.8398 20.2558L42.8398 48.2558L47.8321 55.7442Z" fill="#F35959"/>
<path d="M2.50385 27.7442C0.435968 26.3656 -0.122814 23.5717 1.25577 21.5038C2.63436 19.436 5.42827 18.8772 7.49615 20.2558L2.50385 27.7442ZM44.5038 55.7442L2.50385 27.7442L7.49615 20.2558L49.4962 48.2558L44.5038 55.7442Z" fill="#F35959"/>
<path d="M83 24C83 26.4853 85.0147 28.5 87.5 28.5C89.9853 28.5 92 26.4853 92 24L83 24ZM92 24L92 -1.96701e-07L83 1.96701e-07L83 24L92 24Z" fill="#F35959"/>
<path d="M0 24C1.08635e-07 26.4853 2.01472 28.5 4.5 28.5C6.98528 28.5 9 26.4853 9 24L0 24ZM9 24L9 -1.96701e-07L-1.04907e-06 1.96701e-07L0 24L9 24Z" fill="#F35959"/>
</svg>
