<svg width="92" height="145" viewBox="0 0 92 145" fill="none" xmlns="http://www.w3.org/2000/svg">
<g clip-path="url(#clip0_149_2)">
<path d="M49.35 143.43C47.5927 145.187 44.7434 145.187 42.9861 143.43L14.3483 114.792C12.5909 113.035 12.5909 110.186 14.3483 108.428C16.1056 106.671 18.9549 106.671 20.7122 108.428L46.1681 133.884L71.6239 108.428C73.3813 106.671 76.2305 106.671 77.9879 108.428C79.7452 110.186 79.7452 113.035 77.9879 114.792L49.35 143.43ZM50.6681 51.248V140.248H41.6681V51.248H50.6681Z" fill="#E9E9E9"/>
<path d="M89.8321 27.7442C91.9 26.3656 92.4588 23.5717 91.0802 21.5038C89.7016 19.436 86.9077 18.8772 84.8398 20.2558L89.8321 27.7442ZM47.8321 55.7442L89.8321 27.7442L84.8398 20.2558L42.8398 48.2558L47.8321 55.7442Z" fill="#E9E9E9"/>
<path d="M2.50384 27.7442C0.43596 26.3656 -0.122822 23.5717 1.25576 21.5038C2.63435 19.436 5.42826 18.8772 7.49614 20.2558L2.50384 27.7442ZM44.5038 55.7442L2.50384 27.7442L7.49614 20.2558L49.4962 48.2558L44.5038 55.7442Z" fill="#E9E9E9"/>
<path d="M83 24C83 26.4853 85.0147 28.5 87.5 28.5C89.9853 28.5 92 26.4853 92 24H83ZM92 24V0L83 3.93402e-07V24H92Z" fill="#E9E9E9"/>
<path d="M1.04907e-06 24C1.1577e-06 26.4853 2.01472 28.5 4.5 28.5C6.98528 28.5 9 26.4853 9 24H1.04907e-06ZM9 24V0L0 3.93402e-07L1.04907e-06 24H9Z" fill="#E9E9E9"/>
</g>
<defs>
<clipPath id="clip0_149_2">
<rect width="92" height="145" fill="white"/>
</clipPath>
</defs>
</svg>
