<svg width="92" height="126" viewBox="0 0 92 126" fill="none" xmlns="http://www.w3.org/2000/svg">
<path d="M49.3499 124.43C47.5926 126.187 44.7433 126.187 42.986 124.43L14.3482 95.7922C12.5908 94.0348 12.5908 91.1856 14.3482 89.4282C16.1055 87.6709 18.9548 87.6709 20.7121 89.4282L46.168 114.884L71.6238 89.4282C73.3812 87.6709 76.2304 87.6709 77.9878 89.4282C79.7451 91.1856 79.7451 94.0348 77.9878 95.7922L49.3499 124.43ZM50.668 32.248L50.668 121.248L41.668 121.248L41.668 32.248L50.668 32.248Z" fill="#99CC00"/>
<path d="M89.8321 8.74422C91.9 7.36564 92.4588 4.57173 91.0802 2.50385C89.7016 0.435968 86.9077 -0.122815 84.8398 1.25577L89.8321 8.74422ZM47.8321 36.7442L89.8321 8.74422L84.8398 1.25577L42.8398 29.2558L47.8321 36.7442Z" fill="#99CC00"/>
<path d="M2.50385 8.74422C0.435968 7.36564 -0.122814 4.57173 1.25577 2.50385C2.63436 0.435968 5.42827 -0.122815 7.49615 1.25577L2.50385 8.74422ZM44.5038 36.7442L2.50385 8.74422L7.49615 1.25577L49.4962 29.2558L44.5038 36.7442Z" fill="#99CC00"/>
</svg>
