<svg width="83" height="83" viewBox="0 0 83 83" fill="none" xmlns="http://www.w3.org/2000/svg">
<g clip-path="url(#clip0_21_33)">
<path d="M81.7683 66.318L56.7335 41.2832L81.7683 16.2484C82.248 15.7628 82.517 15.1078 82.517 14.4252C82.517 13.7427 82.248 13.0876 81.7683 12.602L69.942 0.77573C69.7029 0.535735 69.4187 0.345309 69.1059 0.215374C68.793 0.0854401 68.4576 0.0185547 68.1188 0.0185547C67.78 0.0185547 67.4446 0.0854401 67.1317 0.215374C66.8188 0.345309 66.5347 0.535735 66.2956 0.77573L41.2608 25.8105L16.226 0.77573C15.7424 0.292283 15.0866 0.0206972 14.4028 0.0206972C13.719 0.0206972 13.0632 0.292283 12.5796 0.77573L0.753269 12.602C0.513274 12.8411 0.322848 13.1253 0.192913 13.4381C0.0629792 13.751 -0.00390625 14.0864 -0.00390625 14.4252C-0.00390625 14.764 0.0629792 15.0994 0.192913 15.4123C0.322848 15.7252 0.513274 16.0093 0.753269 16.2484L25.7881 41.2832L0.753269 66.318C0.269822 66.8016 -0.0017637 67.4574 -0.0017637 68.1412C-0.0017637 68.825 0.269822 69.4808 0.753269 69.9644L12.5796 81.7907C12.8187 82.0307 13.1028 82.2212 13.4157 82.3511C13.7285 82.481 14.064 82.5479 14.4028 82.5479C14.7415 82.5479 15.077 82.481 15.3898 82.3511C15.7027 82.2212 15.9869 82.0307 16.226 81.7907L41.2608 56.7559L66.2956 81.7907C66.7792 82.2742 67.435 82.5458 68.1188 82.5458C68.8026 82.5458 69.4584 82.2742 69.942 81.7907L81.7683 69.9644C82.0083 69.7253 82.1987 69.4412 82.3286 69.1283C82.4586 68.8155 82.5254 68.48 82.5254 68.1412C82.5254 67.8025 82.4586 67.467 82.3286 67.1542C82.1987 66.8413 82.0083 66.5572 81.7683 66.318Z" fill="white"/>
</g>
<defs>
<clipPath id="clip0_21_33">
<rect width="82.521" height="82.521" fill="white" transform="translate(0 0.0224609)"/>
</clipPath>
</defs>
</svg>
